<svg xmlns="http://www.w3.org/2000/svg" viewBox="0 0 512 512">
  <defs>
    <linearGradient id="bg" x1="0%" y1="0%" x2="100%" y2="100%">
      <stop offset="0%" stop-color="#0891b2"/>
      <stop offset="100%" stop-color="#0e7490"/>
    </linearGradient>
    <linearGradient id="drop" x1="0%" y1="0%" x2="0%" y2="100%">
      <stop offset="0%" stop-color="#67e8f9"/>
      <stop offset="100%" stop-color="#22d3ee"/>
    </linearGradient>
  </defs>
  <rect width="512" height="512" rx="96" fill="url(#bg)"/>
  <path d="M256 80c0 0 100 140 100 210c0 55-45 100-100 100s-100-45-100-100C156 220 256 80 256 80z" fill="url(#drop)" opacity="0.95"/>
  <path d="M256 80c0 0 100 140 100 210c0 55-45 100-100 100s-100-45-100-100C156 220 256 80 256 80z" fill="none" stroke="white" stroke-width="12" opacity="0.3"/>
  <ellipse cx="230" cy="260" rx="25" ry="35" fill="white" opacity="0.4" transform="rotate(-20 230 260)"/>
  <text x="256" y="440" text-anchor="middle" font-family="Arial, Helvetica, sans-serif" font-weight="900" font-size="100" fill="white" letter-spacing="8">TSD</text>
</svg>
